<svg xmlns="http://www.w3.org/2000/svg" width="42" height="42" viewBox="0 0 42 42"><defs><style>.a{fill:#f3ba2f;}.b{fill:#161616;}</style></defs><g transform="translate(3 3)"><circle class="a" cx="21" cy="21" r="21" transform="translate(-3 -3)"/><path class="b" d="M12.336,15.672,18,10.008l5.667,5.667,3.3-3.3L18,3.417l-8.96,8.96,3.3,3.3M3.417,18l3.295-3.3,3.3,3.3-3.3,3.3Zm8.919,2.328L18,25.992l5.667-5.667,3.3,3.294h0L18,32.583l-8.96-8.96-.005,0,3.3-3.291M25.992,18l3.3-3.3,3.3,3.3-3.3,3.3Z"/><path class="b" d="M21.342,18h0L18,14.654l-2.471,2.471h0l-.284.284-.585.585L14.654,18l.005,0L18,21.346,21.345,18h0"/></g></svg>