<svg xmlns="http://www.w3.org/2000/svg" width="42" height="42" viewBox="0 0 42 42"><defs><style>.a{fill:#8247e5;}.b{fill:#fff;}</style></defs><g transform="translate(3 3)"><path class="a" d="M18-3A21,21,0,1,1-3,18,21,21,0,0,1,18-3"/><path class="b" d="M25.5,13.011a1.944,1.944,0,0,0-1.828,0l-4.266,2.513-2.894,1.6-4.19,2.513a1.944,1.944,0,0,1-1.828,0l-3.275-1.98a1.855,1.855,0,0,1-.913-1.6V12.249a1.877,1.877,0,0,1,.913-1.6l3.275-1.9a1.939,1.939,0,0,1,1.828,0l3.275,1.98a1.855,1.855,0,0,1,.914,1.6v2.513l2.894-1.675v-2.59a1.88,1.88,0,0,0-.913-1.6L12.4,5.394a1.944,1.944,0,0,0-1.828,0L4.327,9.05a1.677,1.677,0,0,0-.914,1.524v7.159a1.878,1.878,0,0,0,.914,1.6l6.169,3.58a1.944,1.944,0,0,0,1.828,0l4.19-2.437L19.408,18.8l4.19-2.437a1.939,1.939,0,0,1,1.828,0l3.275,1.9a1.854,1.854,0,0,1,.913,1.6v3.808a1.879,1.879,0,0,1-.913,1.6l-3.2,1.9a1.946,1.946,0,0,1-1.829,0l-3.274-1.9a1.854,1.854,0,0,1-.914-1.6V21.236l-2.894,1.676v2.513a1.877,1.877,0,0,0,.913,1.6l6.17,3.579a1.939,1.939,0,0,0,1.828,0l6.169-3.579a1.854,1.854,0,0,0,.913-1.6V18.189a1.88,1.88,0,0,0-.913-1.6Z"/></g></svg>